<?xml version="1.0" encoding="UTF-8"?>
<svg id="Calque_1" data-name="Calque 1" xmlns="http://www.w3.org/2000/svg" viewBox="0 0 283.46 99.03">
  <defs>
    <style>
      .cls-1 {
        fill: #36a9e1;
      }
    </style>
  </defs>
  <path class="cls-1" d="M0,64.16C0,45.13,11.94,27.79,33.57,27.79c19.4,0,32.45,11.94,32.45,35.06v3.17H13.43c.19,13.61,8.02,22.57,20.89,22.57,11.56,0,17.53-6.15,18.09-13.24h13.24c-1.68,13.99-12.49,23.69-31.7,23.69C11.94,99.03,0,83.37,0,64.16ZM52.22,55.95c-1.12-12.31-8.77-17.72-18.46-17.72s-17.9,6.34-19.58,17.72h38.05Z"/>
  <path class="cls-1" d="M68.25,77.4h13.24c.56,7.65,6.72,11.19,17.91,11.19s15.48-4.48,15.48-10.63c0-5.6-3.17-8.21-13.61-9.32l-9.32-.93c-14.55-1.49-21.63-7.27-21.63-18.84,0-14.17,11.19-21.07,26.86-21.07s27.79,5.97,28.72,20.14h-12.68c-.93-7.09-6.53-9.88-16.23-9.88s-14.73,3.73-14.73,9.51c0,5.41,3.36,7.65,11.94,8.58l9.32.93c16.79,1.68,23.87,7.27,23.87,20.33,0,13.8-11.19,21.63-28.72,21.63s-30.03-7.83-30.4-21.63Z"/>
  <path class="cls-1" d="M134.46,0h13.99v14.36h-13.99V0ZM135.02,29.84h12.87v67.51h-12.87V29.84Z"/>
  <path class="cls-1" d="M155.16,64.16c0-19.02,11.94-36.37,33.57-36.37,19.39,0,32.45,11.94,32.45,35.06v3.17h-52.59c.19,13.61,8.02,22.57,20.89,22.57,11.56,0,17.53-6.15,18.09-13.24h13.24c-1.68,13.99-12.5,23.69-31.71,23.69-22.01,0-33.94-15.67-33.94-34.88ZM207.38,55.95c-1.12-12.31-8.77-17.72-18.46-17.72s-17.9,6.34-19.58,17.72h38.05Z"/>
  <path class="cls-1" d="M224.53,78.14c0-18.65,16.04-21.26,32.08-21.07h13.99v-4.29c0-10.07-4.85-14.55-14.36-14.55-6.71,0-14.36,2.05-15.85,10.82h-13.24c1.86-15.67,14.92-21.26,28.72-21.26,16.04,0,27.6,8.21,27.6,24.25v45.32h-11.94l-.56-8.77h-.56c-3.54,5.97-10.82,10.44-20.14,10.44-15.29,0-25.74-6.71-25.74-20.89ZM270.6,76.65v-9.51h-13.61c-9.14,0-18.84.19-18.84,10.82,0,8.02,5.6,10.63,12.5,10.63,9.88,0,17.35-5.97,19.95-11.94Z"/>
</svg>